<svg width="218" height="82" xmlns="http://www.w3.org/2000/svg">
 <g>
  <path id="svg_1" stroke-width="0px" d="m33.97,0.07l-6.72,0c-1.23,0 -1.98,0.42 -1.98,1.98l0,27.58c0,4.27 -2.85,6.72 -7.34,6.72s-7.27,-2.45 -7.27,-6.72l0,-27.59c0,-1.56 -0.75,-1.98 -1.96,-1.98l-6.72,0c-1.23,0 -1.98,0.42 -1.98,1.98l0,29.06c0,10.66 9.86,14.67 17.93,14.67s18,-4.01 18,-14.67l0,-29.06c0,-1.56 -0.74,-1.98 -1.96,-1.98l0,0.01zm48.08,42.53l-9.58,-13.92c4.22,-1.44 9.45,-6.39 9.45,-13.52c0,-4.36 -1.44,-8.23 -3.94,-10.68c-2.85,-2.84 -6.13,-4.34 -13.52,-4.34l-17.12,0c-1.56,0 -1.91,0.75 -1.91,1.98l0,40.67c0,1.58 0.68,1.98 1.91,1.98l6.72,0c1.23,0 1.98,-0.4 1.98,-1.98l0,-33.15l9.03,0c3.52,0 6.23,2.24 6.23,5.78c0,3.19 -3.12,5.5 -6.44,5.5l-1.37,0c-1.56,0 -1.96,0.75 -1.96,1.98l0,5.43c0,1.91 0.14,2.64 0.74,3.47l7.34,10.94c0.96,1.42 1.77,2.03 3.4,2.03l8.02,0c1.3,0 1.63,-1.23 1.02,-2.17zm40.5,-20.99c0.6,-0.26 4.95,-2.45 4.95,-9.3c0,-6.39 -4.76,-12.31 -15.83,-12.31l-19.01,0c-1.58,0 -1.98,0.75 -1.98,1.98l0,40.81c0,1.23 0.4,1.98 1.98,1.98l19.96,0c9.44,0 16.16,-4.41 16.16,-13.04c0,-7.34 -5.69,-9.91 -6.23,-10.12zm-9.79,13.52l-11.42,0l0,-25.56l10.33,0c3.54,0 5.64,0.75 5.64,3.82c0,2.64 -1.7,4.06 -5.64,4.06l-0.89,0c-1.56,0 -1.96,0.75 -1.96,1.98l0,5.16c0,1.23 0.4,1.96 1.96,1.96l1.58,0c3.26,0 5.64,0.96 5.64,4.15s-1.91,4.41 -5.23,4.41l-0.01,0.02zm63.03,7.74l-15,-40.67c-0.61,-1.44 -1.3,-2.12 -2.78,-2.12l-6.53,0c-1.49,0 -2.24,0.68 -2.78,2.12l-15.07,40.67c-0.33,0.82 -0.33,1.91 1.16,1.91l7.13,0c1.51,0 2.05,-0.4 2.59,-2.03l1.89,-5.37l16.65,0l1.89,5.37c0.54,1.63 1.09,2.03 2.59,2.03l7.13,0c1.49,0 1.49,-1.09 1.16,-1.91l-0.03,0zm-26.16,-15l5.09,-15l5.09,15l-10.19,0l0.01,0zm66.49,-27.8l-6.51,0c-1.23,0 -1.98,0.42 -1.98,1.98l0,23.57l-14.39,-23.23c-0.88,-1.35 -1.37,-2.31 -3.06,-2.31l-6.37,0c-1.56,0 -1.98,0.75 -1.98,1.98l0,40.74c0,1.58 0.75,1.98 1.98,1.98l6.72,0c1.23,0 1.96,-0.4 1.96,-1.98l0,-23.64l14.41,23.3c0.88,1.37 1.35,2.31 3.05,2.31l6.18,0c1.58,0 1.98,-0.75 1.98,-1.98l0,-40.75c0,-1.56 -0.75,-1.98 -1.98,-1.98l-0.01,0.01z" class="cls-1"/>
  <path id="svg_2" stroke-width="0px" d="m4.29,81.4c-0.4,0 -0.75,-0.15 -1.04,-0.44c-0.29,-0.27 -0.44,-0.62 -0.44,-1.04l0,0l0,-20.21c0,-0.42 0.15,-0.77 0.44,-1.07c0.29,-0.31 0.64,-0.46 1.04,-0.46l0,0c0.42,0 0.77,0.15 1.07,0.46c0.31,0.29 0.46,0.65 0.46,1.07l0,0l0,8.71l12.4,0l0,-8.71c0,-0.42 0.15,-0.77 0.44,-1.07c0.29,-0.31 0.64,-0.46 1.04,-0.46l0,0c0.42,0 0.77,0.15 1.07,0.46c0.31,0.29 0.46,0.65 0.46,1.07l0,0l0,20.21c0,0.42 -0.15,0.76 -0.46,1.04c-0.29,0.29 -0.65,0.44 -1.07,0.44l0,0c-0.4,0 -0.75,-0.15 -1.04,-0.44c-0.29,-0.27 -0.44,-0.62 -0.44,-1.04l0,0l0,-8.71l-12.4,0l0,8.71c0,0.42 -0.15,0.76 -0.46,1.04c-0.29,0.29 -0.65,0.44 -1.07,0.44l0,0zm24.75,-0.16c-0.4,0 -0.75,-0.15 -1.04,-0.44c-0.29,-0.27 -0.44,-0.62 -0.44,-1.04l0,0l0,-19.88c0,-0.42 0.15,-0.77 0.44,-1.07c0.29,-0.31 0.64,-0.46 1.04,-0.46l13.16,0c0.38,0 0.71,0.14 0.98,0.41c0.27,0.27 0.41,0.61 0.41,1.01l0,0c0,0.4 -0.14,0.73 -0.41,0.98s-0.6,0.38 -0.98,0.38l-11.64,0l0,7.27l10.43,0c0.4,0 0.74,0.14 1.01,0.41s0.41,0.6 0.41,0.98l0,0c0,0.4 -0.14,0.73 -0.41,0.98c-0.27,0.27 -0.61,0.41 -1.01,0.41l-10.43,0l0,7.27l11.64,0c0.38,0 0.71,0.14 0.98,0.41c0.27,0.27 0.41,0.61 0.41,1.01l0,0c0,0.38 -0.14,0.71 -0.41,0.98c-0.27,0.25 -0.6,0.38 -0.98,0.38l-13.16,0l0,0.01zm19.39,0.16c-0.44,0 -0.79,-0.15 -1.07,-0.44c-0.27,-0.27 -0.41,-0.62 -0.41,-1.04l0,0c0,-0.18 0.05,-0.4 0.16,-0.66l0,0l8.36,-19.72c0.16,-0.4 0.41,-0.73 0.74,-0.98c0.31,-0.25 0.69,-0.38 1.15,-0.38l0.33,0c0.46,0 0.85,0.13 1.17,0.38c0.31,0.25 0.56,0.58 0.74,0.98l0,0l8.36,19.72c0.11,0.25 0.16,0.47 0.16,0.66l0,0c0,0.42 -0.14,0.76 -0.41,1.04c-0.27,0.29 -0.63,0.44 -1.07,0.44l0,0c-0.31,0 -0.59,-0.08 -0.85,-0.25c-0.25,-0.16 -0.45,-0.39 -0.57,-0.68l0,0l-2.13,-5.11l-11.14,0l-2.13,5.11c-0.13,0.29 -0.32,0.52 -0.57,0.68c-0.25,0.16 -0.53,0.25 -0.82,0.25l0,0zm9.1,-19.39l-4.42,10.65l8.85,0l-4.42,-10.65l-0.01,0zm20.16,19.39c-0.42,0 -0.76,-0.15 -1.04,-0.44c-0.29,-0.27 -0.44,-0.62 -0.44,-1.04l0,0l0,-18.79l-6.69,0c-0.38,0 -0.71,-0.13 -0.98,-0.38c-0.25,-0.25 -0.38,-0.58 -0.38,-0.98l0,0c0,-0.4 0.13,-0.74 0.38,-1.01c0.27,-0.27 0.6,-0.41 0.98,-0.41l16.33,0c0.4,0 0.74,0.14 1.01,0.41c0.27,0.27 0.41,0.61 0.41,1.01l0,0c0,0.4 -0.14,0.73 -0.41,0.98c-0.27,0.25 -0.61,0.38 -1.01,0.38l-6.66,0l0,18.79c0,0.42 -0.15,0.76 -0.44,1.04c-0.29,0.29 -0.65,0.44 -1.07,0.44l0,0l0.01,0zm23.19,0c-0.42,0 -0.77,-0.15 -1.07,-0.44c-0.27,-0.27 -0.41,-0.62 -0.41,-1.04l0,0l0,-19.56c0,-0.6 0.2,-1.11 0.6,-1.53c0.42,-0.44 0.93,-0.66 1.53,-0.66l1.07,0c0.44,0 0.84,0.14 1.2,0.41c0.36,0.25 0.63,0.58 0.79,0.98l0,0l7.46,18.55l7.43,-18.55c0.18,-0.4 0.46,-0.73 0.82,-0.98c0.35,-0.27 0.74,-0.41 1.17,-0.41l1.09,0c0.58,0 1.08,0.22 1.5,0.66c0.42,0.42 0.63,0.93 0.63,1.53l0,0l0,19.56c0,0.42 -0.15,0.76 -0.44,1.04c-0.27,0.29 -0.62,0.44 -1.04,0.44l0,0c-0.42,0 -0.77,-0.15 -1.07,-0.44c-0.29,-0.27 -0.44,-0.62 -0.44,-1.04l0,0l0,-18.63l-7.57,18.74c-0.18,0.4 -0.46,0.73 -0.85,0.98c-0.38,0.25 -0.8,0.38 -1.26,0.38l0,0c-0.46,0 -0.87,-0.13 -1.26,-0.38c-0.38,-0.25 -0.66,-0.58 -0.85,-0.98l0,0l-7.57,-18.74l0,18.63c0,0.42 -0.15,0.76 -0.44,1.04c-0.31,0.29 -0.66,0.44 -1.07,0.44l0,0l0.05,0zm40.31,0.16c-2.29,0 -4.31,-0.5 -6.04,-1.5c-1.73,-1 -3.07,-2.39 -4.01,-4.18c-0.93,-1.77 -1.42,-3.8 -1.47,-6.09l0,0c0.05,-2.29 0.55,-4.32 1.47,-6.09c0.95,-1.77 2.29,-3.15 4.01,-4.15c1.73,-1.02 3.74,-1.53 6.04,-1.53l0,0c2.29,0 4.3,0.51 6.01,1.53c1.71,1 3.04,2.39 3.99,4.18c0.95,1.77 1.45,3.79 1.5,6.06l0,0c-0.05,2.28 -0.56,4.31 -1.5,6.09c-0.95,1.78 -2.28,3.18 -3.99,4.18c-1.71,1 -3.71,1.5 -6.01,1.5l0,0zm0,-2.79c1.75,0 3.26,-0.39 4.53,-1.17c1.29,-0.78 2.28,-1.86 2.95,-3.22c0.69,-1.35 1.04,-2.88 1.04,-4.59l0,0c0,-1.69 -0.35,-3.22 -1.04,-4.59c-0.67,-1.35 -1.66,-2.41 -2.95,-3.2c-1.27,-0.8 -2.79,-1.2 -4.53,-1.2l0,0c-1.78,0 -3.31,0.4 -4.59,1.2c-1.27,0.78 -2.25,1.85 -2.92,3.2c-0.67,1.37 -1.01,2.9 -1.01,4.59l0,0c0,1.71 0.34,3.24 1.01,4.59c0.67,1.37 1.65,2.44 2.92,3.22s2.8,1.17 4.59,1.17l0,0zm17.94,2.46c-0.42,0 -0.76,-0.15 -1.04,-0.44c-0.29,-0.27 -0.44,-0.62 -0.44,-1.04l0,0l0,-19.88c0,-0.42 0.15,-0.77 0.44,-1.07c0.27,-0.31 0.62,-0.46 1.04,-0.46l6.58,0c2.49,0 4.62,0.56 6.36,1.67c1.73,1.11 3.03,2.54 3.91,4.29c0.87,1.75 1.31,3.58 1.31,5.49l0,0c0,1.93 -0.44,3.77 -1.31,5.52c-0.87,1.75 -2.18,3.17 -3.91,4.26c-1.75,1.11 -3.87,1.67 -6.36,1.67l-6.58,0l0,-0.01zm1.5,-2.79l4.73,0c1.8,0 3.38,-0.36 4.73,-1.09c1.35,-0.73 2.39,-1.75 3.14,-3.06c0.75,-1.29 1.12,-2.79 1.12,-4.51l0,0c0,-1.69 -0.37,-3.2 -1.12,-4.51c-0.75,-1.29 -1.79,-2.3 -3.14,-3.03c-1.35,-0.75 -2.92,-1.12 -4.73,-1.12l-4.73,0l0,17.32zm23.11,2.79c-0.4,0 -0.75,-0.15 -1.04,-0.44c-0.29,-0.27 -0.44,-0.62 -0.44,-1.04l0,0l0,-19.88c0,-0.42 0.15,-0.77 0.44,-1.07c0.29,-0.31 0.64,-0.46 1.04,-0.46l13.16,0c0.38,0 0.71,0.14 0.98,0.41c0.27,0.27 0.41,0.61 0.41,1.01l0,0c0,0.4 -0.14,0.73 -0.41,0.98s-0.6,0.38 -0.98,0.38l-11.64,0l0,7.27l10.43,0c0.4,0 0.74,0.14 1.01,0.41c0.27,0.27 0.41,0.6 0.41,0.98l0,0c0,0.4 -0.14,0.73 -0.41,0.98c-0.27,0.27 -0.61,0.41 -1.01,0.41l-10.43,0l0,7.27l11.64,0c0.38,0 0.71,0.14 0.98,0.41c0.27,0.27 0.41,0.61 0.41,1.01l0,0c0,0.38 -0.14,0.71 -0.41,0.98c-0.27,0.25 -0.6,0.38 -0.98,0.38l-13.16,0l0,0.01zm21.52,0c-0.58,0 -1.07,-0.2 -1.47,-0.6c-0.4,-0.4 -0.6,-0.89 -0.6,-1.47l0,0l0,-19.45c0,-0.42 0.15,-0.77 0.44,-1.07c0.27,-0.31 0.62,-0.46 1.04,-0.46l0,0c0.42,0 0.77,0.15 1.07,0.46c0.29,0.29 0.44,0.65 0.44,1.07l0,0l0,18.55l10.73,0c0.4,0 0.76,0.15 1.07,0.44c0.29,0.29 0.44,0.65 0.44,1.07l0,0c0,0.42 -0.15,0.76 -0.44,1.04c-0.31,0.29 -0.66,0.44 -1.07,0.44l-11.64,0l-0.01,-0.02z" class="cls-1"/>
 </g>
</svg>